HIERARCHY
ROOT Hips
{
	OFFSET -0.148888 88.448799 3.733362
	CHANNELS 6 Xposition Yposition Zposition Zrotation Yrotation Xrotation 
	JOINT Spine
	{
		OFFSET 0.000000 8.814246 -2.080107
		CHANNELS 3 Zrotation Yrotation Xrotation
		JOINT Spine1
		{
			OFFSET 0.000000 8.844141 0.000000
			CHANNELS 3 Zrotation Yrotation Xrotation
			JOINT Spine2
			{
				OFFSET -0.000000 11.682268 -0.000000
				CHANNELS 3 Zrotation Yrotation Xrotation
				JOINT Spine3
				{
					OFFSET -0.000000 11.746700 -0.000000
					CHANNELS 3 Zrotation Yrotation Xrotation
					JOINT Neck
					{
						OFFSET 0.000000 17.658264 -0.000000
						CHANNELS 3 Zrotation Yrotation Xrotation
						JOINT Neck1
						{
							OFFSET 0.000000 5.101515 0.000000
							CHANNELS 3 Zrotation Yrotation Xrotation
							JOINT Head
							{
								OFFSET -0.000000 5.101515 -0.000000
								CHANNELS 3 Zrotation Yrotation Xrotation
								JOINT HeadEnd
								{
									OFFSET 0.000000 11.655085 -0.000000
									CHANNELS 3 Zrotation Yrotation Xrotation
									End Site
									{
										OFFSET 0.000000 0.000000 0.000000
									}
								}
							}
						}
					}
					JOINT RightShoulder
					{
						OFFSET -2.625389 11.175210 -0.000000
						CHANNELS 3 Zrotation Yrotation Xrotation
						JOINT RightArm
						{
							OFFSET -0.000000 10.434715 0.000000
							CHANNELS 3 Zrotation Yrotation Xrotation
							JOINT RightForeArm
							{
								OFFSET 0.000000 29.628420 0.000000
								CHANNELS 3 Zrotation Yrotation Xrotation
								JOINT RightHand
								{
									OFFSET 0.000000 22.857611 0.000000
									CHANNELS 3 Zrotation Yrotation Xrotation
									JOINT RightHandThumb1
									{
										OFFSET -2.867323 3.959563 2.944291
										CHANNELS 3 Zrotation Yrotation Xrotation
										JOINT RightHandThumb2
										{
											OFFSET -0.000000 3.350399 0.000000
											CHANNELS 3 Zrotation Yrotation Xrotation
											JOINT RightHandThumb3
											{
												OFFSET -0.000000 3.756509 0.000000
												CHANNELS 3 Zrotation Yrotation Xrotation
												JOINT RightHandThumb4
												{
													OFFSET 0.000000 3.147345 0.000000
													CHANNELS 3 Zrotation Yrotation Xrotation
													End Site
													{
														OFFSET 0.000000 0.000000 0.000000
													}
												}
											}
										}
									}
									JOINT RightHandIndex1
									{
										OFFSET -0.086752 10.030893 2.345280
										CHANNELS 3 Zrotation Yrotation Xrotation
										JOINT RightHandIndex2
										{
											OFFSET 0.000000 4.061090 -0.000000
											CHANNELS 3 Zrotation Yrotation Xrotation
											JOINT RightHandIndex3
											{
												OFFSET -0.000000 3.248873 0.000000
												CHANNELS 3 Zrotation Yrotation Xrotation
												JOINT RightHandIndex4
												{
													OFFSET 0.000000 2.639709 -0.000000
													CHANNELS 3 Zrotation Yrotation Xrotation
													End Site
													{
														OFFSET 0.000000 0.000000 0.000000
													}
												}
											}
										}
									}
									JOINT RightHandMiddle1
									{
										OFFSET 0.104102 9.502952 0.006768
										CHANNELS 3 Zrotation Yrotation Xrotation
										JOINT RightHandMiddle2
										{
											OFFSET 0.000000 4.568727 0.000000
											CHANNELS 3 Zrotation Yrotation Xrotation
											JOINT RightHandMiddle3
											{
												OFFSET 0.000000 3.654981 -0.000000
												CHANNELS 3 Zrotation Yrotation Xrotation
												JOINT RightHandMiddle4
												{
													OFFSET -0.000000 2.741236 0.000000
													CHANNELS 3 Zrotation Yrotation Xrotation
													End Site
													{
														OFFSET 0.000000 0.000000 0.000000
													}
												}
											}
										}
									}
									JOINT RightHandRing1
									{
										OFFSET 0.086752 8.921708 -2.267442
										CHANNELS 3 Zrotation Yrotation Xrotation
										JOINT RightHandRing2
										{
											OFFSET -0.000000 4.061090 0.000000
											CHANNELS 3 Zrotation Yrotation Xrotation
											JOINT RightHandRing3
											{
												OFFSET -0.000000 3.654981 0.000000
												CHANNELS 3 Zrotation Yrotation Xrotation
												JOINT RightHandRing4
												{
													OFFSET -0.000000 2.741236 0.000000
													CHANNELS 3 Zrotation Yrotation Xrotation
													End Site
													{
														OFFSET 0.000000 0.000000 0.000000
													}
												}
											}
										}
									}
									JOINT RightHandPinky1
									{
										OFFSET -0.173504 7.976997 -4.467199
										CHANNELS 3 Zrotation Yrotation Xrotation
										JOINT RightHandPinky2
										{
											OFFSET -0.000000 3.350399 0.000000
											CHANNELS 3 Zrotation Yrotation Xrotation
											JOINT RightHandPinky3
											{
												OFFSET -0.000000 2.842763 0.000000
												CHANNELS 3 Zrotation Yrotation Xrotation
												JOINT RightHandPinky4
												{
													OFFSET 0.000000 2.639709 -0.000000
													CHANNELS 3 Zrotation Yrotation Xrotation
													End Site
													{
														OFFSET 0.000000 0.000000 0.000000
													}
												}
											}
										}
									}
									JOINT RightForeArmEnd
									{
										OFFSET 0.000000 0.000000 0.000000
										CHANNELS 3 Zrotation Yrotation Xrotation
										End Site
										{
											OFFSET 0.000000 0.000000 0.000000
										}
									}
								}
								JOINT RightArmEnd
								{
									OFFSET 0.000000 0.000000 0.000000
									CHANNELS 3 Zrotation Yrotation Xrotation
									End Site
									{
										OFFSET 0.000000 0.000000 0.000000
									}
								}
							}
						}
					}
					JOINT LeftShoulder
					{
						OFFSET 2.625389 11.175210 0.000000
						CHANNELS 3 Zrotation Yrotation Xrotation
						JOINT LeftArm
						{
							OFFSET -0.000000 10.813635 -0.000000
							CHANNELS 3 Zrotation Yrotation Xrotation
							JOINT LeftForeArm
							{
								OFFSET 0.000000 28.724781 0.000000
								CHANNELS 3 Zrotation Yrotation Xrotation
								JOINT LeftHand
								{
									OFFSET 0.644384 25.716167 -0.328871
									CHANNELS 3 Zrotation Yrotation Xrotation
									JOINT LeftHandThumb1
									{
										OFFSET 2.867323 3.959563 2.944291
										CHANNELS 3 Zrotation Yrotation Xrotation
										JOINT LeftHandThumb2
										{
											OFFSET 0.000000 3.350399 -0.000000
											CHANNELS 3 Zrotation Yrotation Xrotation
											JOINT LeftHandThumb3
											{
												OFFSET 0.000000 3.756509 0.000000
												CHANNELS 3 Zrotation Yrotation Xrotation
												JOINT LeftHandThumb4
												{
													OFFSET -0.000000 3.100000 0.000000
													CHANNELS 3 Zrotation Yrotation Xrotation
													End Site
													{
														OFFSET 0.000000 0.000000 0.000000
													}
												}
											}
										}
									}
									JOINT LeftHandIndex1
									{
										OFFSET 0.086752 10.030893 2.345280
										CHANNELS 3 Zrotation Yrotation Xrotation
										JOINT LeftHandIndex2
										{
											OFFSET -0.000000 4.061090 0.000000
											CHANNELS 3 Zrotation Yrotation Xrotation
											JOINT LeftHandIndex3
											{
												OFFSET 0.000000 3.248873 0.000000
												CHANNELS 3 Zrotation Yrotation Xrotation
												JOINT LeftHandIndex4
												{
													OFFSET -0.000000 2.639709 -0.000000
													CHANNELS 3 Zrotation Yrotation Xrotation
													End Site
													{
														OFFSET 0.000000 0.000000 0.000000
													}
												}
											}
										}
									}
									JOINT LeftHandMiddle1
									{
										OFFSET -0.104102 9.502952 0.006768
										CHANNELS 3 Zrotation Yrotation Xrotation
										JOINT LeftHandMiddle2
										{
											OFFSET -0.000000 4.568727 -0.000000
											CHANNELS 3 Zrotation Yrotation Xrotation
											JOINT LeftHandMiddle3
											{
												OFFSET 0.000000 3.654981 0.000000
												CHANNELS 3 Zrotation Yrotation Xrotation
												JOINT LeftHandMiddle4
												{
													OFFSET 0.000000 2.741236 0.000000
													CHANNELS 3 Zrotation Yrotation Xrotation
													End Site
													{
														OFFSET 0.000000 0.000000 0.000000
													}
												}
											}
										}
									}
									JOINT LeftHandRing1
									{
										OFFSET -0.086752 8.921708 -2.267442
										CHANNELS 3 Zrotation Yrotation Xrotation
										JOINT LeftHandRing2
										{
											OFFSET 0.000000 4.061090 0.000000
											CHANNELS 3 Zrotation Yrotation Xrotation
											JOINT LeftHandRing3
											{
												OFFSET 0.000000 3.654981 0.000000
												CHANNELS 3 Zrotation Yrotation Xrotation
												JOINT LeftHandRing4
												{
													OFFSET -0.000000 2.741236 0.000000
													CHANNELS 3 Zrotation Yrotation Xrotation
													End Site
													{
														OFFSET 0.000000 0.000000 0.000000
													}
												}
											}
										}
									}
									JOINT LeftHandPinky1
									{
										OFFSET 0.173504 7.976997 -4.467199
										CHANNELS 3 Zrotation Yrotation Xrotation
										JOINT LeftHandPinky2
										{
											OFFSET -0.000000 3.350399 -0.000000
											CHANNELS 3 Zrotation Yrotation Xrotation
											JOINT LeftHandPinky3
											{
												OFFSET -0.000000 2.842763 0.000000
												CHANNELS 3 Zrotation Yrotation Xrotation
												JOINT LeftHandPinky4
												{
													OFFSET 0.000000 2.639709 0.000000
													CHANNELS 3 Zrotation Yrotation Xrotation
													End Site
													{
														OFFSET 0.000000 0.000000 0.000000
													}
												}
											}
										}
									}
									JOINT LeftForeArmEnd
									{
										OFFSET 0.000000 0.000000 0.000000
										CHANNELS 3 Zrotation Yrotation Xrotation
										End Site
										{
											OFFSET 0.000000 0.000000 0.000000
										}
									}
								}
								JOINT LeftArmEnd
								{
									OFFSET 0.000000 0.000000 0.000000
									CHANNELS 3 Zrotation Yrotation Xrotation
									End Site
									{
										OFFSET 0.000000 0.000000 0.000000
									}
								}
							}
						}
					}
				}
			}
		}
	}
	JOINT RightUpLeg
	{
		OFFSET -11.289943 -0.000000 -0.000000
		CHANNELS 3 Zrotation Yrotation Xrotation
		JOINT RightLeg
		{
			OFFSET 0.000000 -38.200325 0.000000
			CHANNELS 3 Zrotation Yrotation Xrotation
			JOINT RightFoot
			{
				OFFSET 0.000000 -39.900856 -0.000000
				CHANNELS 3 Zrotation Yrotation Xrotation
				JOINT RightToeBase
				{
					OFFSET 0.000000 0.000000 15.261641
					CHANNELS 3 Zrotation Yrotation Xrotation
					JOINT RightToeBaseEnd
					{
						OFFSET -0.000000 -0.000000 7.370709
						CHANNELS 3 Zrotation Yrotation Xrotation
						End Site
						{
							OFFSET 0.000000 0.000000 0.000000
						}
					}
				}
				JOINT RightLegEnd
				{
					OFFSET 0.000000 0.000000 0.000000
					CHANNELS 3 Zrotation Yrotation Xrotation
					End Site
					{
						OFFSET 0.000000 0.000000 0.000000
					}
				}
			}
			JOINT RightUpLegEnd
			{
				OFFSET 0.000000 0.000000 0.000000
				CHANNELS 3 Zrotation Yrotation Xrotation
				End Site
				{
					OFFSET 0.000000 0.000000 0.000000
				}
			}
		}
	}
	JOINT LeftUpLeg
	{
		OFFSET 11.315661 -0.000000 0.000000
		CHANNELS 3 Zrotation Yrotation Xrotation
		JOINT LeftLeg
		{
			OFFSET -0.000000 -38.200325 -0.000000
			CHANNELS 3 Zrotation Yrotation Xrotation
			JOINT LeftFoot
			{
				OFFSET 0.000000 -39.900856 -0.000000
				CHANNELS 3 Zrotation Yrotation Xrotation
				JOINT LeftToeBase
				{
					OFFSET 0.000000 0.000000 15.261641
					CHANNELS 3 Zrotation Yrotation Xrotation
					JOINT LeftToeBaseEnd
					{
						OFFSET 0.000000 -0.000000 7.539996
						CHANNELS 3 Zrotation Yrotation Xrotation
						End Site
						{
							OFFSET 0.000000 0.000000 0.000000
						}
					}
				}
				JOINT LeftLegEnd
				{
					OFFSET 0.000000 0.000000 0.000000
					CHANNELS 3 Zrotation Yrotation Xrotation
					End Site
					{
						OFFSET 0.000000 0.000000 0.000000
					}
				}
			}
			JOINT LeftUpLegEnd
			{
				OFFSET 0.000000 0.000000 0.000000
				CHANNELS 3 Zrotation Yrotation Xrotation
				End Site
				{
					OFFSET 0.000000 0.000000 0.000000
				}
			}
		}
	}
}
MOTION
Frames: 4
Frame Time: 0.016667
-0.148888 88.448799 3.733362 -1.071294 -0.165774 -8.795275 1.977979 -0.454280 7.201230 -1.571631 0.301330 1.174068 -0.240323 -1.599208 1.542572 -0.148160 -0.486667 0.007339 2.983474 2.070139 7.902873 0.724172 3.669763 -1.586659 -0.964287 -0.706352 -15.315372 0.000000 0.000000 0.000000 95.648170 -1.072138 10.953419 54.864632 -56.995480 11.180590 -0.098399 6.046414 28.930777 11.922408 10.375718 -3.733858 10.937046 -1.865515 39.738762 0.000000 0.000000 -26.639997 0.000000 0.000000 -18.499998 0.000000 0.000000 0.000000 14.917025 -0.000000 -4.046403 10.441919 0.000000 0.000000 10.441919 0.000000 0.000000 0.000000 0.000000 0.000000 13.016307 0.000000 -6.907734 9.111417 0.000000 0.000000 9.111417 0.000000 0.000000 0.000000 0.000000 0.000000 12.065241 0.000000 -8.902472 8.445668 0.000000 0.000000 8.445668 0.000000 0.000000 0.000000 0.000000 0.000000 10.481709 -0.000000 -12.391636 7.337195 0.000000 0.000000 7.337195 0.000000 0.000000 0.000000 0.000000 0.000000 0.000000 0.000000 0.000000 0.000000 0.000000 0.000000 -93.027763 0.366341 6.512349 -63.928600 41.960018 -1.341277 -0.560537 -1.312608 43.460899 -8.089611 -4.192083 -9.728065 -12.135554 1.950835 39.216904 0.000000 0.000000 -29.519997 0.000000 0.000000 -20.499998 0.000000 0.000000 0.000000 -21.031582 -0.000000 -5.234027 -14.722108 0.000000 0.000000 -14.722108 0.000000 0.000000 0.000000 0.000000 0.000000 -18.543806 0.000000 -7.204970 -12.980664 0.000000 0.000000 -12.980664 0.000000 0.000000 0.000000 0.000000 0.000000 -16.284643 0.000000 -9.077846 -11.399253 0.000000 0.000000 -11.399253 0.000000 0.000000 0.000000 0.000000 0.000000 -12.854185 -0.000000 -11.003169 -8.997928 0.000000 0.000000 -8.997928 0.000000 0.000000 0.000000 0.000000 0.000000 0.000000 0.000000 0.000000 0.000000 0.000000 0.000000 -6.742904 -12.334049 11.218077 -0.100748 -1.572749 3.630219 4.062670 -8.851838 22.145350 -1.149408 2.248072 -19.515566 0.000000 0.000000 0.000000 0.000000 0.000000 0.000000 0.000000 0.000000 0.000000 7.149309 -3.984354 4.916173 0.269636 1.266636 11.990840 -4.307302 12.293428 17.657980 1.482724 -1.272024 -21.386477 0.000000 0.000000 0.000000 0.000000 0.000000 0.000000 0.000000 0.000000 0.000000 
-0.071624 88.400200 3.630129 -1.321584 -0.506880 -9.520737 2.182540 -0.338863 6.180784 -0.583735 0.166211 3.362821 -0.008754 -0.857038 0.315192 -1.353559 -0.098257 2.734004 3.196800 0.359784 6.075412 0.990425 1.886247 -2.186632 -0.638083 -1.460908 -17.488495 0.000000 0.000000 0.000000 93.054199 -0.562988 10.891993 57.838600 -51.505669 10.679838 -0.426481 8.092815 30.036253 13.543034 7.845423 -2.545378 10.957933 -1.862340 39.786030 -0.000000 0.000030 -26.625330 0.000009 0.000043 -18.454060 0.000011 0.000001 -0.000032 15.116162 0.074200 -4.470526 10.308852 -0.019654 -0.077767 10.352911 0.005222 -0.090388 -0.000027 0.000025 -0.000028 13.007143 0.028931 -6.381752 9.205900 -0.014496 -0.029884 9.282783 0.004049 -0.025114 0.000026 0.000030 0.000011 11.933460 -0.076673 -7.259105 8.540683 0.037579 -0.023801 8.492042 0.011140 -0.016776 0.000000 0.000033 0.000003 10.751159 -0.110464 -9.578819 7.815515 0.119796 -0.146400 7.619039 0.049376 -0.138672 -0.000333 -0.000002 0.000000 0.000000 0.000000 0.000000 0.000000 0.000000 0.000000 -91.614807 0.367298 7.496870 -62.177498 40.542458 1.710944 0.155771 -2.687517 43.569954 -7.809144 -5.193406 -9.809313 -12.057272 1.916036 39.280998 0.000003 0.000032 -29.149736 -0.000070 -0.000029 -20.402954 -0.000975 -0.000006 0.000953 -20.616873 0.119699 -5.162140 -14.007648 0.074280 0.522793 -14.272380 0.098928 0.457850 0.000014 0.000670 0.000008 -18.426281 0.052840 -6.524749 -12.894831 0.015229 0.200981 -12.714377 0.028894 0.168213 0.001129 -0.000046 -0.000075 -15.847959 -0.013314 -7.974661 -11.254144 -0.004958 -0.266077 -11.265852 -0.027891 -0.191705 -0.000746 0.000003 0.000009 -12.044307 -0.072383 -9.192727 -9.115464 -0.028345 -0.564228 -9.336373 -0.094204 -0.491513 -0.000380 -0.000008 -0.000040 0.000000 0.000000 0.000000 0.000000 0.000000 0.000000 -7.420771 -11.964775 11.977386 -0.215246 -1.170277 5.871207 3.612637 -9.777999 20.515436 -1.080987 1.560377 -17.825500 0.000000 0.000000 0.000000 0.000000 0.000000 0.000000 0.000000 0.000000 0.000000 8.424013 0.063564 7.163183 0.220793 0.866384 12.464254 -4.538817 9.454490 18.310230 0.851138 -0.810056 -20.840370 0.000000 0.000000 0.000000 0.000000 0.000000 0.000000 0.000000 0.000000 0.000000 
-0.017701 88.384277 3.571844 -1.122667 -0.494445 -9.525987 2.036763 -0.300441 6.285990 -0.691605 0.192628 3.420872 0.118316 -0.947050 0.439052 -1.372577 -0.100858 2.727276 3.120036 0.392466 5.707680 1.031353 1.903011 -2.262209 -0.633239 -1.436034 -17.409636 0.000000 0.000000 0.000000 92.879089 -0.488805 11.049338 58.389141 -50.862026 10.284537 -0.445589 8.546904 30.525890 13.175438 7.369236 -2.556728 10.940600 -1.864584 39.789757 -0.000004 0.000041 -26.607231 0.000014 0.000037 -18.448128 0.000015 0.000006 -0.000043 15.252285 0.074118 -4.389047 10.408201 -0.007399 -0.110838 10.450062 0.016448 -0.117353 -0.000009 0.000037 -0.000022 13.177062 0.028411 -6.282355 9.304235 -0.009732 -0.045528 9.378049 0.008638 -0.034556 0.000025 0.000017 0.000001 12.090808 -0.075233 -7.184099 8.631244 0.028105 -0.005212 8.585420 0.003642 0.000474 -0.000013 0.000230 -0.000008 10.949487 -0.107005 -9.519901 7.906716 0.093219 -0.069761 7.712649 0.025223 -0.073961 -0.000279 0.000006 -0.000004 0.000000 0.000000 0.000000 0.000000 0.000000 0.000000 -91.357231 0.366938 7.493840 -62.686954 39.713226 1.485852 0.165640 -2.880579 43.638599 -7.247768 -5.699393 -10.139362 -12.049803 1.923487 39.269699 0.000010 0.000037 -29.139074 -0.000085 -0.000018 -20.392021 -0.000712 0.000003 0.000970 -20.653969 0.118202 -5.240809 -13.946638 0.071381 0.488762 -14.225679 0.096249 0.428063 0.000025 0.000574 0.000006 -18.559698 0.051248 -6.616472 -12.853173 0.014261 0.189198 -12.663655 0.028730 0.158351 0.001326 -0.000046 -0.000103 -16.114689 -0.008642 -8.034002 -11.305448 -0.004659 -0.253327 -11.320963 -0.028236 -0.184476 -0.000935 0.000012 0.000009 -12.448092 -0.062661 -9.222162 -9.218449 -0.030053 -0.533311 -9.409575 -0.095973 -0.469240 -0.000410 0.000005 -0.000058 0.000000 0.000000 0.000000 0.000000 0.000000 0.000000 -7.790735 -12.067100 11.771980 -0.215900 -1.171747 6.062793 3.840146 -9.474498 20.405977 -1.118681 1.561206 -17.822754 0.000000 0.000000 0.000000 0.000000 0.000000 0.000000 0.000000 0.000000 0.000000 8.202897 0.298440 7.284677 0.216638 0.844362 12.230923 -4.469820 9.458614 18.336285 0.842168 -0.821357 -20.823406 0.000000 0.000000 0.000000 0.000000 0.000000 0.000000 0.000000 0.000000 0.000000 
0.012911 88.374596 3.531815 -0.944167 -0.523990 -9.501740 1.896942 -0.263731 6.372988 -0.767364 0.206948 3.400447 0.134705 -0.958067 0.582191 -1.398458 -0.088328 2.745546 2.892846 0.469773 5.452189 1.052587 1.901991 -2.315493 -0.623839 -1.429845 -17.412399 0.000000 0.000000 0.000000 92.744446 -0.440220 11.112916 58.778316 -50.274017 10.087749 -0.455040 8.965731 31.066212 13.054231 7.176074 -2.388894 10.950600 -1.867365 39.786366 -0.000003 0.000038 -26.660074 0.000011 0.000039 -18.476032 0.000015 0.000005 -0.000042 15.456126 0.074075 -4.424273 10.556396 0.005116 -0.155933 10.591747 0.028275 -0.157171 -0.000009 0.000035 -0.000023 13.391665 0.026634 -6.252803 9.462983 -0.004519 -0.064656 9.529543 0.013500 -0.048906 0.000024 0.000019 0.000003 12.260887 -0.074296 -7.124216 8.762420 0.019227 0.015240 8.720506 -0.003190 0.019247 -0.000011 0.000372 -0.000008 11.055426 -0.107527 -9.405828 8.014892 0.068412 0.000390 7.827966 0.003098 -0.014444 -0.000215 0.000005 -0.000009 0.000000 0.000000 0.000000 0.000000 0.000000 0.000000 -91.110992 0.351179 7.434587 -62.968277 39.067795 1.353816 0.148150 -3.051201 43.715263 -7.148931 -5.983647 -10.377654 -12.034288 1.926578 39.265575 0.000010 0.000037 -29.133833 -0.000091 -0.000018 -20.381172 -0.000601 0.000003 0.001009 -20.639378 0.115999 -5.285573 -13.934176 0.069292 0.459464 -14.222634 0.093523 0.404325 0.000023 0.000474 0.000007 -18.611347 0.049049 -6.652251 -12.862988 0.013370 0.178447 -12.679716 0.028503 0.150134 0.001408 -0.000046 -0.000113 -16.292234 -0.003926 -8.032821 -11.415760 -0.004079 -0.245378 -11.434444 -0.028371 -0.179969 -0.000886 0.000013 0.000009 -12.762781 -0.056888 -9.180494 -9.375201 -0.029862 -0.512457 -9.558053 -0.096779 -0.454309 -0.000439 0.000004 -0.000059 0.000000 0.000000 0.000000 0.000000 0.000000 0.000000 -8.104413 -12.076222 11.642080 -0.214920 -1.168172 6.146545 4.002028 -9.213520 20.347816 -1.143614 1.554268 -17.837837 0.000000 0.000000 0.000000 0.000000 0.000000 0.000000 0.000000 0.000000 0.000000 8.004951 0.517061 7.377315 0.213393 0.831399 12.078675 -4.416453 9.511563 18.340729 0.839403 -0.827309 -20.833223 0.000000 0.000000 0.000000 0.000000 0.000000 0.000000 0.000000 0.000000 0.000000 
